<?xml version="1.0" encoding="iso-8859-1"?>
<!-- Generator: Adobe Illustrator 18.1.1, SVG Export Plug-In . SVG Version: 6.00 Build 0)  -->
<svg version="1.1" id="Capa_1" xmlns="http://www.w3.org/2000/svg" xmlns:xlink="http://www.w3.org/1999/xlink" x="0px" y="0px" fill="#F6F7FB"
	 viewBox="0 0 30.051 30.051" style="enable-background:new 0 0 30.051 30.051;" xml:space="preserve">
	<path d="M9.237,19.049c0.193,0.1,0.428,0.082,0.605-0.045l2.381-1.729v1.258c0,0.221,0.123,0.422,0.318,0.516
		c0.193,0.1,0.43,0.082,0.604-0.045l4.834-3.508c0.148-0.111,0.238-0.283,0.238-0.471c0-0.186-0.09-0.363-0.238-0.473l-4.834-3.512
		c-0.1-0.07-0.223-0.105-0.342-0.105c-0.086,0-0.176,0.02-0.262,0.064c-0.195,0.094-0.318,0.297-0.318,0.514v1.258l-2.381-1.73
		c-0.102-0.07-0.223-0.105-0.342-0.105c-0.09,0-0.182,0.02-0.264,0.064c-0.197,0.094-0.318,0.297-0.318,0.514v7.02
		C8.919,18.754,9.04,18.955,9.237,19.049z"/>
	<path d="M15.024,30.051c8.299,0,15.027-6.725,15.027-15.025C30.052,6.729,23.323,0,15.024,0C6.728,0,0.001,6.729,0.001,15.025
		C0.001,23.326,6.728,30.051,15.024,30.051z M15.024,2.51c6.912,0,12.518,5.605,12.518,12.516c0,6.912-5.605,12.514-12.518,12.514
		S2.509,21.938,2.509,15.025C2.509,8.115,8.112,2.51,15.024,2.51z"/>
	<path d="M19.434,18.906h1.393c0.166,0,0.305-0.141,0.305-0.309v-7.146c0-0.168-0.139-0.305-0.305-0.305h-1.393
		c-0.168,0-0.307,0.137-0.307,0.305v7.146C19.128,18.766,19.267,18.906,19.434,18.906z"/>

</svg>
