<svg version="1.1" id="Capa_1" xmlns="http://www.w3.org/2000/svg" xmlns:xlink="http://www.w3.org/1999/xlink" x="0px" y="0px" fill="#FFF"
	width="612px" height="612px" viewBox="0 0 612 612" style="enable-background:new 0 0 612 612;" xml:space="preserve">
	<path d="M306,0C136.992,0,0,136.992,0,306s136.992,306,306,306s306-137.012,306-306S475.008,0,306,0z M306,573.157
		C158.451,573.157,38.843,453.55,38.843,306C38.843,158.451,158.451,38.843,306,38.843c147.55,0,267.157,119.608,267.157,267.157
		C573.157,453.55,453.55,573.157,306,573.157z M325.125,115.955h-37.657l0.593,209.782l132.077,112.952l23.313-32.876
		l-118.326-99.221V115.955z"/>
	</svg>
